<svg width="55" height="55" xmlns="http://www.w3.org/2000/svg">
  <g fill="none" fill-rule="evenodd">
    <path fill="#F25A2B" d="M5 5h50v50H5z"/>
    <path fill="#0C0C17" d="M0 0h50v50H0z"/>
    <path d="M16.248 32.497H10l.79-3.404h6.136l1.882-7.536h-6.324l.79-3.404h6.25L21.178 11h3.802l-1.618 7.153h6.512L31.53 11h3.764l-1.581 7.153H40v.038l-.753 3.366H33l-1.77 7.536h6.287l-.79 3.404h-6.174L29.046 39h-3.99l1.544-6.503h-6.437L18.695 39h-3.99l1.543-6.503zm11.03-3.404l1.881-7.536h-6.512l-1.806 7.536h6.436z" fill="#FFF"/>
  </g>
</svg>
