<?xml version="1.0" standalone="no"?>
<!DOCTYPE svg PUBLIC "-//W3C//DTD SVG 20010904//EN"
 "http://www.w3.org/TR/2001/REC-SVG-20010904/DTD/svg10.dtd">
<svg version="1.0" xmlns="http://www.w3.org/2000/svg"
 width="700.000000pt" height="700.000000pt" viewBox="0 0 700.000000 700.000000"
 preserveAspectRatio="xMidYMid meet">
<metadata>
Created by potrace 1.11, written by Peter Selinger 2001-2013
</metadata>
<g transform="translate(0.000000,700.000000) scale(0.100000,-0.100000)"
fill="#000000" stroke="none">
<path d="M3370 6989 c-81 -16 -72 -11 -615 -324 -93 -54 -273 -157 -400 -230
-126 -73 -265 -153 -308 -179 -43 -25 -80 -46 -82 -46 -2 0 -39 -21 -82 -46
-98 -58 -917 -532 -958 -554 -143 -77 -216 -133 -272 -210 -50 -68 -87 -148
-102 -222 -9 -42 -12 -432 -12 -1500 0 -794 2 -1450 5 -1458 3 -8 8 -28 10
-43 14 -81 114 -240 190 -300 19 -15 133 -84 253 -153 120 -69 225 -130 233
-135 19 -11 252 -145 300 -172 261 -146 720 -416 808 -474 180 -119 305 -229
647 -568 366 -362 375 -369 500 -369 127 -1 139 8 498 362 170 169 317 314
326 323 103 101 341 272 513 369 40 22 80 45 88 51 36 23 363 209 368 209 3 0
13 6 21 14 9 7 45 29 81 48 36 19 90 50 120 68 30 18 64 38 75 44 11 6 157 90
325 186 231 133 318 188 361 230 84 82 146 195 165 300 9 55 12 2864 2 2939
-14 108 -81 236 -168 321 -28 26 -90 70 -138 98 -48 27 -190 109 -315 181
-126 73 -243 140 -260 150 -18 10 -162 94 -322 186 -159 92 -310 179 -335 193
-104 58 -546 315 -555 322 -5 4 -39 23 -75 43 -36 19 -178 100 -316 179 -138
80 -273 151 -300 158 -60 15 -213 20 -274 9z m257 -1368 c58 -16 103 -37 213
-102 94 -55 618 -358 673 -388 16 -9 36 -20 45 -26 10 -5 117 -68 239 -138
198 -115 317 -197 303 -210 -3 -2 -81 -48 -175 -102 -93 -53 -181 -105 -195
-113 -14 -9 -27 -17 -30 -17 -3 0 -59 -32 -125 -71 -176 -104 -433 -253 -485
-282 -25 -14 -172 -99 -328 -189 l-283 -164 -130 75 c-72 42 -135 76 -140 76
-5 0 -9 5 -9 10 0 6 -4 10 -10 10 -5 0 -44 21 -87 46 -43 26 -96 57 -118 69
-22 12 -166 95 -320 185 -154 90 -300 174 -325 188 -25 14 -101 58 -168 99
-68 40 -125 73 -127 73 -3 0 -177 100 -184 107 -8 6 53 64 99 92 25 16 241
141 480 279 239 137 451 259 470 270 49 29 145 84 205 117 28 15 61 35 75 44
105 70 304 98 437 62z m-1697 -1171 c69 -40 141 -81 160 -92 86 -49 258 -149
412 -240 92 -54 170 -98 173 -98 4 0 19 -8 33 -19 15 -10 47 -29 72 -43 150
-84 557 -323 569 -334 21 -19 23 -1864 3 -1872 -26 -9 -127 40 -384 189 -493
284 -723 417 -758 438 -19 11 -57 33 -85 47 -190 101 -285 183 -345 296 -72
135 -69 96 -70 950 0 708 3 813 25 876 4 11 12 9 37 -6 18 -11 89 -53 158 -92z
m3315 -765 l0 -810 -22 -59 c-33 -88 -81 -162 -143 -225 -51 -51 -293 -198
-719 -437 -31 -17 -144 -82 -251 -144 -107 -63 -206 -120 -220 -127 -14 -8
-52 -30 -85 -49 -79 -46 -137 -72 -177 -79 l-34 -6 1 936 0 937 35 19 c53 30
97 55 333 192 120 70 237 138 260 151 23 13 83 47 132 76 50 29 108 62 130 75
22 12 117 67 211 122 94 55 177 103 185 106 8 4 21 11 29 17 8 6 67 40 130 76
63 37 129 75 145 84 l30 17 15 -31 c13 -27 15 -142 15 -841z"/>
</g>
</svg>
