<?xml version="1.0" encoding="UTF-8"?>
<svg width="113px" height="35px" viewBox="0 0 113 35" version="1.1" xmlns="http://www.w3.org/2000/svg" xmlns:xlink="http://www.w3.org/1999/xlink">
    <defs></defs>
    <g id="↔️-Navs" stroke="none" stroke-width="1" fill="none" fill-rule="evenodd">
        <g id="Navs/Nav-Bar/Default/After-Sign-in/XS" transform="translate(-15.000000, -15.000000)" fill="#FFFFFF">
            <g id="Logos/Combination-Mark" transform="translate(15.000000, 15.000000)">
                <g id="logo">
                    <path d="M110.46774,15.7031798 L103.823293,15.7031798 C103.774938,15.7031798 103.730146,15.6822003 103.698588,15.6438231 C103.668558,15.6059576 103.655833,15.5578582 103.666522,15.5107822 C104.069138,13.5842471 105.482114,12.2906798 107.18929,12.2906798 C109.719514,12.2906798 110.42193,14.4797149 110.60975,15.4708699 C110.629601,15.6090278 110.55376,15.7031798 110.46774,15.7031798 L110.46774,15.7031798 Z M107.232046,10.2802266 C103.972938,10.2802266 101.421845,13.0919956 101.421845,16.6815424 C101.421845,20.3089547 103.993298,23.0434576 107.404596,23.0434576 C109.958743,23.0434576 111.409384,21.8307383 112.388186,20.7720395 C112.498638,20.6553728 112.556664,20.495212 112.546484,20.3345395 C112.538849,20.173867 112.466062,20.022405 112.346448,19.9154605 L111.612474,19.2671418 C111.378844,19.0604167 110.995061,19.0788377 110.781791,19.3080775 C109.807062,20.3601243 108.748857,20.851864 107.445825,20.851864 C105.927995,20.851864 104.237107,19.8735015 103.816676,17.6926535 L112.254828,17.6926535 C112.556664,17.6926535 112.809635,17.4639254 112.845774,17.1620249 C112.866643,16.9660453 112.869697,16.8892909 112.869697,16.6626096 C112.869697,12.9052266 110.550197,10.2802266 107.232046,10.2802266 L107.232046,10.2802266 Z" id="e"></path>
                    <path d="M98.49104,5.67496345 L97.4358892,5.67496345 C97.1080951,5.67496345 96.8408717,5.95158025 96.8408717,6.29025177 L96.8408717,22.5417516 C96.8408717,22.8825267 97.1080951,23.1575658 97.4358892,23.1575658 L98.49104,23.1575658 C98.8188341,23.1575658 99.0880935,22.8825267 99.0880935,22.5417516 L99.0880935,6.29025177 C99.0880935,5.95158025 98.8188341,5.67496345 98.49104,5.67496345" id="l"></path>
                    <path d="M94.4541846,19.1581506 C94.21801,18.948867 93.8291363,18.972405 93.6153575,19.2088085 C92.6508082,20.2982091 91.5630816,20.851864 90.3796635,20.851864 C88.1746884,20.851864 86.4481705,18.9918494 86.4481705,16.6196272 C86.4481705,14.294481 88.1354956,12.4723319 90.290589,12.4723319 C91.654701,12.4723319 92.5708957,13.1288377 93.529846,14.1123173 C93.7563497,14.3436038 94.1564214,14.3436038 94.38547,14.1102705 L95.1382766,13.3283991 C95.3612173,13.0955775 95.3622353,12.7327851 95.1387856,12.4979167 C94.1492954,11.4653143 92.7067979,10.2802266 90.3140029,10.2802266 C86.8965969,10.2802266 84.1159462,13.1615863 84.1159462,16.7045687 C84.1159462,20.2004751 86.8965969,23.0434576 90.3140029,23.0434576 C92.2716054,23.0434576 93.7919795,22.3066155 95.241094,20.6517909 C95.3464564,20.5325658 95.3993921,20.3785453 95.3892122,20.2178728 C95.3805592,20.0607822 95.3057366,19.9103436 95.1891763,19.806981 L94.4541846,19.1581506" id="c"></path>
                    <path d="M81.1897223,10.2802266 L80.1310085,10.2802266 C79.8016875,10.2802266 79.534973,10.5622043 79.534973,10.9092951 L79.534973,22.527421 C79.534973,22.8761262 79.8016875,23.1575658 80.1310085,23.1575658 L81.1897223,23.1575658 C81.5185344,23.1575658 81.7847398,22.8761262 81.7847398,22.527421 L81.7847398,10.9092951 C81.7847398,10.5622043 81.5185344,10.2802266 81.1897223,10.2802266" id="i"></path>
                    <path d="M71.35081,12.3960892 C73.1969422,12.3960892 75.0634342,13.8411184 75.0634342,16.6058114 C75.0634342,19.0737208 73.571055,20.7305921 71.35081,20.7305921 C69.4812639,20.7305921 67.4661447,19.1279605 67.4661447,16.5413377 C67.4661447,13.9802997 69.4812639,12.3960892 71.35081,12.3960892 L71.35081,12.3960892 Z M71.4612623,10.1814693 C69.9607391,10.1814693 68.6393828,10.7341009 67.5282424,11.8296418 L67.5282424,6.27364766 C67.5282424,5.9441155 67.2610189,5.67496345 66.9332248,5.67496345 L65.879092,5.67496345 C65.5502799,5.67496345 65.2830565,5.9441155 65.2830565,6.27364766 L65.2830565,16.5147295 C65.2830565,20.7367325 68.3904833,22.9447003 71.4612623,22.9447003 C74.3793422,22.9447003 77.3982035,20.5417763 77.3982035,16.5208699 C77.3982035,12.5521564 74.3793422,10.1814693 71.4612623,10.1814693 L71.4612623,10.1814693 Z" id="b"></path>
                    <path d="M61.8636145,10.2802266 L60.7723249,10.2802266 C60.4424949,10.2802266 60.1773074,10.548867 60.1773074,10.8783991 L60.1773074,17.6588816 C60.1773074,19.7225512 59.050897,20.9542032 57.1670991,20.9542032 L56.832688,20.9542032 C54.9468541,20.9542032 53.8214616,19.7225512 53.8214616,17.6588816 L53.8214616,10.8783991 C53.8214616,10.548867 53.5552562,10.2802266 53.2269531,10.2802266 L52.1351545,10.2802266 C51.8068514,10.2802266 51.540137,10.548867 51.540137,10.8783991 L51.540137,17.8615132 C51.540137,21.0289108 53.6066649,23.1575658 56.6804979,23.1575658 L57.3259061,23.1575658 C60.3961761,23.1575658 62.45965,21.0289108 62.45965,17.8615132 L62.45965,10.8783991 C62.45965,10.548867 62.1924266,10.2802266 61.8636145,10.2802266" id="u"></path>
                    <path d="M42.8235631,20.8293494 C40.7076625,20.8293494 39.1099208,19.0189693 39.1099208,16.6196272 C39.1099208,14.1527412 40.6033181,12.4948465 42.8235631,12.4948465 C44.6966721,12.4948465 46.7153543,14.095943 46.7153543,16.6815424 C46.7153543,19.2430921 44.6966721,20.8293494 42.8235631,20.8293494 L42.8235631,20.8293494 Z M42.7166737,10.2802266 C39.7975758,10.2802266 36.7792235,12.6836623 36.7792235,16.7045687 C36.7792235,20.6722588 39.7975758,23.0434576 42.7166737,23.0434576 C44.2563897,23.0434576 45.5787639,22.5445541 46.6476577,21.5585161 L46.6476577,25.6500365 C46.6476577,25.9811038 46.9153901,26.2482091 47.2426752,26.2482091 L48.299862,26.2482091 C48.6271471,26.2482091 48.8938615,25.9811038 48.8938615,25.6500365 L48.8938615,16.6702851 C48.8938615,12.4748904 45.7869437,10.2802266 42.7166737,10.2802266 L42.7166737,10.2802266 Z" id="q"></path>
                    <path d="M23.1901909,20.0386166 C23.1901909,20.8393578 22.6257008,21.8234819 21.9344577,22.2240046 L15.7764946,25.798297 C15.5765332,25.9150781 15.3372451,25.9932363 15.0840414,26.0421992 L15.0782936,16.7909463 L23.0492196,12.1531552 C23.136041,12.4010109 23.1901909,12.652516 23.1901909,12.8894235 L23.1901909,20.0386166 L23.1901909,20.0386166 Z M13.2653308,25.798297 L7.10706516,22.2240046 C6.41642703,21.8234819 5.851937,20.8393578 5.851937,20.0386166 L5.851937,12.8894235 C5.851937,12.6512996 5.90638941,12.3976656 5.99472333,12.1470728 L13.9496161,16.7903381 L13.9562714,26.041591 C13.7039752,25.992628 13.4655946,25.9141657 13.2653308,25.798297 L13.2653308,25.798297 Z M7.10706516,10.702819 L13.2653308,7.12913486 C13.9562714,6.72861218 15.086159,6.72861218 15.7764946,7.12913486 L21.9344577,10.702819 C22.1310914,10.8174713 22.3153221,10.9816947 22.4804944,11.1726805 L14.5141061,15.8086469 L6.56405358,11.168727 C6.72983093,10.97987 6.911944,10.8168631 7.10706516,10.702819 L7.10706516,10.702819 Z M27.7412027,7.34232119 L15.8118887,0.417870932 C15.120948,0.0170441306 13.9910604,0.0170441306 13.3010273,0.417870932 L1.3714108,7.34232119 C0.681075187,7.74253976 0.115980127,8.7260556 0.115980127,9.52801332 L0.115980127,23.3760015 C0.115980127,24.1779592 0.681075187,25.1608668 1.3714108,25.5619977 L8.42693119,29.6569392 C9.11756931,30.0580701 10.1455099,30.8478632 10.7115125,31.4126093 L13.5279124,34.2220463 C14.093915,34.7870965 15.0193035,34.7870965 15.5847011,34.2220463 L18.401706,31.412001 C18.9677086,30.8478632 19.9947417,30.057766 20.6856823,29.6569392 L27.7412027,25.5619977 C28.4315383,25.1608668 28.9960283,24.1779592 28.9960283,23.3760015 L28.9960283,9.52801332 C28.9960283,8.7260556 28.4315383,7.74253976 27.7412027,7.34232119 L27.7412027,7.34232119 Z"></path>
                </g>
            </g>
        </g>
    </g>
</svg>