<?xml version="1.0" encoding="UTF-8"?>
<svg width="40px" height="48px" viewBox="0 0 40 48" version="1.1" xmlns="http://www.w3.org/2000/svg" xmlns:xlink="http://www.w3.org/1999/xlink">
    <defs></defs>
    <g id="👟-Footers" stroke="none" stroke-width="1" fill="none" fill-rule="evenodd">
        <g id="Footers/XS" transform="translate(-168.000000, -20.000000)" fill="#FFFFFF">
            <g id="Logos/Logomark" transform="translate(168.000000, 20.000000)">
                <path d="M30.2194476,30.7317615 L21.6904271,35.7005734 C21.4134727,35.8629169 21.0820493,35.9715687 20.7313522,36.0396347 L20.7233913,23.1789813 L31.7634366,16.7317438 C31.8836876,17.0763011 31.9586873,17.4259316 31.9586873,17.7552692 L31.9586873,27.6937386 C31.9586873,28.8068911 31.1768464,30.1749738 30.2194476,30.7317615 Z M9.68292708,30.7317615 C8.72636618,30.1749738 7.94452533,28.8068911 7.94452533,27.6937386 L7.94452533,17.7552692 C7.94452533,17.4242406 8.01994406,17.0716507 8.14229001,16.7232884 L19.1601286,23.1781358 L19.1693465,36.0387891 C18.8199064,35.9707232 18.4897399,35.8616486 18.2123666,35.7005734 L9.68292708,30.7317615 Z M18.2123666,9.74758889 C19.1693465,9.19080124 20.7342851,9.19080124 21.6904271,9.74758889 L30.2194476,14.7155553 C30.491793,14.8749394 30.7469597,15.1032351 30.9757298,15.3687344 L19.9419695,21.8134353 L8.93083474,15.3632384 C9.16044288,15.1006985 9.41267663,14.8740939 9.68292708,14.7155553 L18.2123666,9.74758889 Z M21.7394492,0.417907819 C20.7824693,-0.139302606 19.2175307,-0.139302606 18.2618077,0.417907819 L1.73882074,10.0439504 C0.782678831,10.6003153 0,11.9675524 0,13.082396 L0,32.333213 C0,33.4480566 0.782678831,34.8144482 1.73882074,35.3720813 L11.5109933,41.064675 C12.4675542,41.6223081 13.8912923,42.720241 14.6752281,43.5053243 L18.5760525,47.4108705 C19.3599883,48.1963765 20.6416877,48.1963765 21.4247855,47.4108705 L25.3264479,43.5044787 C26.1103837,42.720241 27.5328648,41.6218854 28.4898447,41.064675 L38.2620172,35.3720813 C39.2181592,34.8144482 40,33.4480566 40,32.333213 L40,13.082396 C40,11.9675524 39.2181592,10.6003153 38.2620172,10.0439504 L21.7394492,0.417907819 Z" id="Shape"></path>
            </g>
        </g>
    </g>
</svg>